<svg xmlns="http://www.w3.org/2000/svg" xmlns:xlink="http://www.w3.org/1999/xlink" width="68.237" height="68.237" viewBox="0 0 68.237 68.237">
  <defs>
    <linearGradient id="linear-gradient" x1="0.5" x2="0.5" y2="1" gradientUnits="objectBoundingBox">
      <stop offset="0" stop-color="#fc0441"/>
      <stop offset="1" stop-color="#f62da8"/>
    </linearGradient>
  </defs>
  <g id="Group_236" data-name="Group 236" transform="translate(5053.619 1695.619)">
    <path id="routine_FILL0_wght400_GRAD0_opsz48" d="M52.678-915.736q-1.1-.293-2.195-.622a19.887,19.887,0,0,1-2.122-.768,15.729,15.729,0,0,0,1.573-3.731,14.967,14.967,0,0,0,.549-4.024,14.83,14.83,0,0,0-4.463-10.9,14.83,14.83,0,0,0-10.9-4.463,14.968,14.968,0,0,0-4.024.549,15.734,15.734,0,0,0-3.731,1.573q-.366-1.024-.7-2.085t-.622-2.158a20.69,20.69,0,0,1,4.426-1.683,19.1,19.1,0,0,1,4.719-.585,19.038,19.038,0,0,1,13.974,5.78,19.038,19.038,0,0,1,5.78,13.974,19.1,19.1,0,0,1-.585,4.719A20.69,20.69,0,0,1,52.678-915.736ZM32.924-951.22V-960h4.39v8.78Zm22.388,9.292-3.146-3.146,6.219-6.146,3.146,3.073Zm6.146,19.242v-4.39h8.78v4.39Z" transform="translate(-5055.619 -735.619)" fill="url(#linear-gradient)"/>
    <path id="routine_FILL0_wght400_GRAD0_opsz48-2" data-name="routine_FILL0_wght400_GRAD0_opsz48" d="M29.485-919.248A47.218,47.218,0,0,1,24.8-924.7a45.133,45.133,0,0,1-3.8-6.182,16.448,16.448,0,0,0-.878,2.963,15.819,15.819,0,0,0-.293,3.036,14.744,14.744,0,0,0,4.463,10.828,14.744,14.744,0,0,0,10.828,4.463,15.257,15.257,0,0,0,3-.293,16.682,16.682,0,0,0,2.927-.878,43.291,43.291,0,0,1-6.146-3.8A49.012,49.012,0,0,1,29.485-919.248Zm3.146-3.073a42.177,42.177,0,0,0,8.011,6.292,39.1,39.1,0,0,0,9.4,4.1,18.731,18.731,0,0,1-6.658,5.048,19.639,19.639,0,0,1-8.194,1.756,19.037,19.037,0,0,1-13.974-5.78,19.038,19.038,0,0,1-5.78-13.974,19.638,19.638,0,0,1,1.756-8.194,18.731,18.731,0,0,1,5.048-6.658,39.1,39.1,0,0,0,4.1,9.4A42.174,42.174,0,0,0,32.631-922.32Zm.293,32.558v-8.78h4.39v8.78Zm-21.071-8.78-3.146-3.073,6.219-6.219,3.146,3.146ZM0-922.686v-4.39H8.78v4.39Zm58.385,24.217-6.219-6.219,3.146-3.146,6.146,6.219ZM14.925-941.929,8.78-948.148l3.073-3.146,6.219,6.219ZM29.485-919.248Z" transform="translate(-5053.619 -737.619)" fill="#9da1b2"/>
  </g>
</svg>
