<svg xmlns="http://www.w3.org/2000/svg" xmlns:xlink="http://www.w3.org/1999/xlink" width="67.024" height="69.558" viewBox="0 0 67.024 69.558">
  <defs>
    <clipPath id="clip-path">
      <rect id="Rectangle_131" data-name="Rectangle 131" width="67.024" height="69.558" fill="#cf755a"/>
    </clipPath>
  </defs>
  <g id="Group_123" data-name="Group 123" clip-path="url(#clip-path)">
    <path id="Path_570" data-name="Path 570" d="M520.3,39.069c-.292.045-.591.08-.907.1s-.61.035-.9.035a20.4,20.4,0,0,1-9.389-2.243,19.121,19.121,0,0,1-7.15-6.182v28.6a19.885,19.885,0,0,1-1.733,8.22,21.693,21.693,0,0,1-4.839,6.726,22.856,22.856,0,0,1-15.887,6.182A22.856,22.856,0,0,1,463.6,74.326a21.844,21.844,0,0,1-4.839-6.726,19.892,19.892,0,0,1-1.733-8.22,19.588,19.588,0,0,1,1.733-8.22,21.842,21.842,0,0,1,4.839-6.726,23.289,23.289,0,0,1,7.15-4.551,23.524,23.524,0,0,1,8.742-1.631h.721a2.88,2.88,0,0,1,.652.068V48.712a3.561,3.561,0,0,1-.652-.068,3.889,3.889,0,0,0-.721-.068,11.426,11.426,0,0,0-8.126,3.16,10.369,10.369,0,0,0,0,15.286,11.426,11.426,0,0,0,8.126,3.16,12.339,12.339,0,0,0,8.334-3.09A9.636,9.636,0,0,0,491.4,59.52l.142-48.568h10.541a18.712,18.712,0,0,0,1.961,6.25,19.478,19.478,0,0,0,4.008,5.127,20.064,20.064,0,0,0,5.528,3.566,21.049,21.049,0,0,0,6.717,1.631Z" transform="translate(-456.999 -10.947)" fill="#cf755a"/>
  </g>
</svg>
