<svg xmlns="http://www.w3.org/2000/svg" xmlns:xlink="http://www.w3.org/1999/xlink" width="68.612" height="68.041" viewBox="0 0 68.612 68.041">
  <defs>
    <linearGradient id="linear-gradient" x1="0.5" x2="0.5" y2="1" gradientUnits="objectBoundingBox">
      <stop offset="0" stop-color="#fc0441"/>
      <stop offset="1" stop-color="#f62da8"/>
    </linearGradient>
    <clipPath id="clip-path">
      <rect id="Rectangle_130" data-name="Rectangle 130" width="68.612" height="68.041" fill="url(#linear-gradient)"/>
    </clipPath>
  </defs>
  <g id="Group_122" data-name="Group 122" clip-path="url(#clip-path)">
    <path id="Path_569" data-name="Path 569" d="M442.858,17.064q6.569,0,8.58.034t4.621.167a19.966,19.966,0,0,1,3.763.49q1.4.365,2.3.7a10.36,10.36,0,0,1,2.007,1.064,14.1,14.1,0,0,1,1.755,1.471,10.664,10.664,0,0,1,1.4,1.794,12.065,12.065,0,0,1,1.02,2.125,21.2,21.2,0,0,1,.669,2.326,22.541,22.541,0,0,1,.49,3.986q.061,2.657.127,4.785t.066,8.969q0,6.778-.066,8.9t-.127,4.785a22.523,22.523,0,0,1-.49,3.986,21.171,21.171,0,0,1-.669,2.326,12.064,12.064,0,0,1-1.02,2.125,10.687,10.687,0,0,1-1.4,1.794,11.73,11.73,0,0,1-1.755,1.527,10.358,10.358,0,0,1-2.008,1.064q-.895.333-2.3.7a17.453,17.453,0,0,1-3.763.431q-2.613.132-4.621.167t-8.58.034q-6.5,0-8.548-.034t-4.658-.167a17.454,17.454,0,0,1-3.763-.431q-1.4-.365-2.3-.7a12.161,12.161,0,0,1-1.976-1.064,9.054,9.054,0,0,1-1.716-1.527A9.177,9.177,0,0,1,418.43,67.1a12.987,12.987,0,0,1-1.02-2.059q-.319-.929-.669-2.392a19.33,19.33,0,0,1-.417-3.922q-.127-2.723-.159-4.851t-.032-8.9q0-6.844.032-8.969t.159-4.785a19.322,19.322,0,0,1,.417-3.922q.348-1.471.669-2.392a10.987,10.987,0,0,1,1.02-2.093,14.417,14.417,0,0,1,1.4-1.826,14.121,14.121,0,0,1,1.755-1.471,10.365,10.365,0,0,1,2.008-1.064q.895-.333,2.3-.7a19.966,19.966,0,0,1,3.763-.49q2.616-.132,4.621-.167T442.858,17.064Zm0-6.114q-6.619,0-8.739.034c-1.4.022-2.976.078-4.719.167a29.134,29.134,0,0,0-4.493.532,17.808,17.808,0,0,0-3.412,1.064,16.858,16.858,0,0,0-3.062,1.6,16.275,16.275,0,0,0-2.743,2.326,16.759,16.759,0,0,0-2.233,2.858,18.029,18.029,0,0,0-1.53,3.187,19.66,19.66,0,0,0-1.02,3.554,32.624,32.624,0,0,0-.51,4.684q-.13,2.723-.159,4.917t-.032,9.1q0,6.91.032,9.1T410.4,59a32.642,32.642,0,0,0,.51,4.684,19.67,19.67,0,0,0,1.02,3.554,18.042,18.042,0,0,0,1.53,3.187,16.729,16.729,0,0,0,2.233,2.858,16.263,16.263,0,0,0,2.743,2.326,16.868,16.868,0,0,0,3.062,1.6,24.291,24.291,0,0,0,3.412,1.03,26.339,26.339,0,0,0,4.493.564c1.743.088,3.319.145,4.719.167s4.319.034,8.739.034,7.334,0,8.739-.034,2.976-.078,4.719-.167a26.346,26.346,0,0,0,4.493-.564,24.282,24.282,0,0,0,3.412-1.03,17.722,17.722,0,0,0,3-1.6,18.558,18.558,0,0,0,2.8-2.326,16.748,16.748,0,0,0,2.233-2.858,18.063,18.063,0,0,0,1.53-3.187,26.462,26.462,0,0,0,.981-3.554,26,26,0,0,0,.49-4.684q.123-2.723.159-4.917t.029-9.1q0-6.91-.029-9.1t-.159-4.917a26,26,0,0,0-.49-4.684,26.454,26.454,0,0,0-.98-3.554,20.308,20.308,0,0,0-1.53-3.157,17.307,17.307,0,0,0-4.976-5.216,16.868,16.868,0,0,0-3.062-1.6,24.3,24.3,0,0,0-3.412-1.03,26.345,26.345,0,0,0-4.493-.564c-1.743-.088-3.319-.145-4.719-.167s-4.319-.034-8.739-.034Zm0,16.544a15.514,15.514,0,0,0-6.506,1.395A16.4,16.4,0,0,0,431,32.61a17.949,17.949,0,0,0-3.572,19.137A17.161,17.161,0,0,0,431,57.329a16.4,16.4,0,0,0,5.356,3.721,15.868,15.868,0,0,0,13.012,0,16.393,16.393,0,0,0,5.356-3.721,17.946,17.946,0,0,0,3.572-19.137,17.161,17.161,0,0,0-3.571-5.582,16.394,16.394,0,0,0-5.356-3.721,15.5,15.5,0,0,0-6.506-1.392Zm0,28.837a10.3,10.3,0,0,1-7.719-3.322,11.732,11.732,0,0,1,0-16.081,10.627,10.627,0,0,1,15.443,0,11.732,11.732,0,0,1,0,16.081A10.3,10.3,0,0,1,442.858,56.331Zm21.363-29.5a3.974,3.974,0,0,1-1.147,2.858,3.738,3.738,0,0,1-2.8,1.2,3.677,3.677,0,0,1-2.743-1.2,3.974,3.974,0,0,1-1.147-2.858,4.055,4.055,0,0,1,1.147-2.924,3.662,3.662,0,0,1,2.743-1.2,3.739,3.739,0,0,1,2.8,1.2,4.055,4.055,0,0,1,1.147,2.924Z" transform="translate(-410.184 -10.95)" fill="url(#linear-gradient)"/>
  </g>
</svg>
