<svg xmlns="http://www.w3.org/2000/svg" xmlns:xlink="http://www.w3.org/1999/xlink" width="75.161" height="46.766" viewBox="0 0 75.161 46.766">
  <defs>
    <linearGradient id="linear-gradient" x1="0.5" x2="0.5" y2="1" gradientUnits="objectBoundingBox">
      <stop offset="0" stop-color="#fc0441"/>
      <stop offset="1" stop-color="#f62da8"/>
    </linearGradient>
  </defs>
  <g id="Group_320" data-name="Group 320" transform="translate(6.136 -13.666)">
    <path id="Layer" d="M58.338.621A16.993,16.993,0,0,1,75.485,18.009a16.951,16.951,0,0,1-17.128,17.5h-.713a17.856,17.856,0,0,1-2.283-.231,17.563,17.563,0,0,1-6.387-2.445q-.374-.236-.743-.482t-.718-.512q-.359-.261-.7-.536t-.684-.566l-2.7,16.577H35.635l4.1-23.4c-.871-1.279-1.693-2.6-2.45-3.951s-1.466-2.731-2.106-4.143-1.225-2.849-1.742-4.31-.974-2.942-1.368-4.443V18.241c0,10.151-6.47,17.246-15.706,17.246a15.176,15.176,0,0,1-3.233-.261,15.549,15.549,0,0,1-3.1-.945,15.189,15.189,0,0,1-5.27-3.715,18,18,0,0,1-3.4-5.836,18.412,18.412,0,0,1-.822-3.292,18.11,18.11,0,0,1-.192-3.385V1.521H8.012V18.054c0,6.027,3.036,10.466,8.374,10.466s8.064-4.458,8.064-10.466V1.521H37.79q.335,1.52.758,3.021t.925,2.977q.507,1.471,1.1,2.913t1.265,2.849A16.283,16.283,0,0,1,58.377.557m0,27.918c5.319,0,9.506-4.187,9.506-10.466S63.78,7.549,58.377,7.549,48.891,11.022,47.488,22.2a13.765,13.765,0,0,0,2.052,2.539,13.719,13.719,0,0,0,5.58,3.3,14.02,14.02,0,0,0,3.218.571Z" transform="translate(-6.47 13.122)" fill-rule="evenodd" fill="url(#linear-gradient)"/>
  </g>
</svg>
