<svg xmlns="http://www.w3.org/2000/svg" xmlns:xlink="http://www.w3.org/1999/xlink" width="67.024" height="68.041" viewBox="0 0 67.024 68.041">
  <defs>
    <clipPath id="clip-path">
      <rect id="Rectangle_131" data-name="Rectangle 131" width="67.024" height="68.041" fill="#074aff"/>
    </clipPath>
  </defs>
  <g id="Group_123" data-name="Group 123" clip-path="url(#clip-path)">
    <path id="Path_570" data-name="Path 570" d="M520.3,38.456c-.292.044-.591.078-.907.1s-.61.034-.9.034A20.772,20.772,0,0,1,509.1,36.4a19.007,19.007,0,0,1-7.15-6.047V58.324a19.091,19.091,0,0,1-1.733,8.04,21.241,21.241,0,0,1-4.839,6.579,23.311,23.311,0,0,1-7.151,4.452,23.594,23.594,0,0,1-8.736,1.6,23.986,23.986,0,0,1-8.742-1.6,23.369,23.369,0,0,1-7.151-4.452,21.388,21.388,0,0,1-4.839-6.579,19.1,19.1,0,0,1-1.733-8.04,18.806,18.806,0,0,1,1.733-8.04A21.386,21.386,0,0,1,463.6,43.7a23.362,23.362,0,0,1,7.15-4.452,23.987,23.987,0,0,1,8.742-1.6h.721a2.942,2.942,0,0,1,.652.066V47.888a3.638,3.638,0,0,1-.652-.066,3.973,3.973,0,0,0-.721-.066,11.568,11.568,0,0,0-8.126,3.091,9.994,9.994,0,0,0,0,14.953,11.568,11.568,0,0,0,8.126,3.091,12.5,12.5,0,0,0,8.334-3.022,9.347,9.347,0,0,0,3.576-7.408l.142-47.509h10.541a18.018,18.018,0,0,0,1.961,6.114,19.119,19.119,0,0,0,4.008,5.015,20.12,20.12,0,0,0,5.528,3.488,21.435,21.435,0,0,0,6.717,1.6Z" transform="translate(-456.999 -10.947)" fill="#074aff"/>
  </g>
</svg>
