<svg xmlns="http://www.w3.org/2000/svg" xmlns:xlink="http://www.w3.org/1999/xlink" width="56.844" height="68.041" viewBox="0 0 56.844 68.041">
  <defs>
    <clipPath id="clip-path">
      <rect id="Rectangle_155" data-name="Rectangle 155" width="56.844" height="68.041" transform="translate(0)" fill="#fff"/>
    </clipPath>
  </defs>
  <g id="Group_355" data-name="Group 355" clip-path="url(#clip-path)">
    <g id="Group_354" data-name="Group 354" transform="translate(2.468 2.028)">
      <g id="Group_353" data-name="Group 353">
        <path id="Path_85" data-name="Path 85" d="M47.105,21.162H57.668v7.27h.179a13.3,13.3,0,0,1,3.728-4.946,9.755,9.755,0,0,1,6.653-2.313,12.27,12.27,0,0,1,6.8,1.675,10.819,10.819,0,0,1,4,4.466,21.834,21.834,0,0,1,1.961,6.779,70.191,70.191,0,0,1,.49,8.457V67.12H70.449V45.347a42.959,42.959,0,0,0-.735-7.911,5,5,0,0,0-1.766-3.117,4.074,4.074,0,0,0-3.217-.872,4.642,4.642,0,0,0-3.268.722A5.522,5.522,0,0,0,59.3,36.993a26.011,26.011,0,0,0-1.135,7.936V67.106H47.137Zm-19.1,0H39.467V67.109H28.01ZM39.467,8.4A8.817,8.817,0,0,1,37.8,13.824,5.267,5.267,0,0,1,36,15.469a4.645,4.645,0,0,1-4.527,0,5.269,5.269,0,0,1-1.794-1.645A8.788,8.788,0,0,1,28.01,8.4a8.788,8.788,0,0,1,1.672-5.423,5.269,5.269,0,0,1,1.794-1.645,4.645,4.645,0,0,1,4.527,0A5.267,5.267,0,0,1,37.8,2.977,8.817,8.817,0,0,1,39.467,8.4Z" transform="translate(-28.007 -0.743)" fill="#cf755a"/>
      </g>
    </g>
  </g>
</svg>
