<svg xmlns="http://www.w3.org/2000/svg" xmlns:xlink="http://www.w3.org/1999/xlink" width="68.612" height="69.558" viewBox="0 0 68.612 69.558">
  <defs>
    <clipPath id="clip-path">
      <rect id="Rectangle_130" data-name="Rectangle 130" width="68.612" height="69.558" fill="#cf755a"/>
    </clipPath>
  </defs>
  <g id="Group_122" data-name="Group 122" clip-path="url(#clip-path)">
    <path id="Path_569" data-name="Path 569" d="M442.858,17.2q6.569,0,8.58.035t4.621.17a19.555,19.555,0,0,1,3.763.5,23.979,23.979,0,0,1,2.3.714,10.286,10.286,0,0,1,2.007,1.088,14.176,14.176,0,0,1,1.755,1.5,10.873,10.873,0,0,1,1.4,1.834,12.456,12.456,0,0,1,1.02,2.173,22.043,22.043,0,0,1,.669,2.378,23.532,23.532,0,0,1,.49,4.075q.061,2.716.127,4.892t.066,9.169q0,6.929-.066,9.1t-.127,4.892a23.514,23.514,0,0,1-.49,4.075,22.016,22.016,0,0,1-.669,2.378,12.455,12.455,0,0,1-1.02,2.173,10.9,10.9,0,0,1-1.4,1.834,11.81,11.81,0,0,1-1.755,1.561,10.283,10.283,0,0,1-2.008,1.088,23.968,23.968,0,0,1-2.3.714,17.09,17.09,0,0,1-3.763.441q-2.613.135-4.621.17t-8.58.035q-6.5,0-8.548-.035t-4.658-.17a17.091,17.091,0,0,1-3.763-.441,23.973,23.973,0,0,1-2.3-.714,12.077,12.077,0,0,1-1.976-1.088,9.123,9.123,0,0,1-1.716-1.561,9.342,9.342,0,0,1-1.471-1.834,13.4,13.4,0,0,1-1.02-2.105q-.319-.95-.669-2.446a20.185,20.185,0,0,1-.417-4.01q-.127-2.784-.159-4.959t-.032-9.1q0-7,.032-9.169t.159-4.892a20.176,20.176,0,0,1,.417-4.01q.348-1.5.669-2.446a11.339,11.339,0,0,1,1.02-2.14,14.708,14.708,0,0,1,1.4-1.867,14.2,14.2,0,0,1,1.755-1.5,10.29,10.29,0,0,1,2.008-1.088,23.869,23.869,0,0,1,2.3-.714,19.554,19.554,0,0,1,3.763-.5q2.616-.135,4.621-.17T442.858,17.2Zm0-6.25q-6.619,0-8.739.035c-1.4.023-2.976.08-4.719.17a28.527,28.527,0,0,0-4.493.544,17.525,17.525,0,0,0-3.412,1.088,16.731,16.731,0,0,0-3.062,1.631A16.373,16.373,0,0,0,415.69,16.8a17.086,17.086,0,0,0-2.233,2.922,18.613,18.613,0,0,0-1.53,3.258,20.444,20.444,0,0,0-1.02,3.634,34.068,34.068,0,0,0-.51,4.789q-.13,2.784-.159,5.027t-.032,9.307q0,7.064.032,9.307t.159,5.027a34.086,34.086,0,0,0,.51,4.789,20.454,20.454,0,0,0,1.02,3.634,18.626,18.626,0,0,0,1.53,3.258,17.055,17.055,0,0,0,2.233,2.922,16.361,16.361,0,0,0,2.743,2.378,16.74,16.74,0,0,0,3.062,1.631,23.9,23.9,0,0,0,3.412,1.053,25.793,25.793,0,0,0,4.493.576c1.743.09,3.319.148,4.719.17s4.319.035,8.739.035,7.334,0,8.739-.035,2.976-.08,4.719-.17a25.8,25.8,0,0,0,4.493-.576,23.888,23.888,0,0,0,3.412-1.052,17.6,17.6,0,0,0,3-1.631,18.656,18.656,0,0,0,2.8-2.378,17.075,17.075,0,0,0,2.233-2.922,18.648,18.648,0,0,0,1.53-3.258,27.527,27.527,0,0,0,.981-3.634,27.146,27.146,0,0,0,.49-4.789q.123-2.784.159-5.027t.029-9.307q0-7.064-.029-9.307t-.159-5.027a27.146,27.146,0,0,0-.49-4.789,27.519,27.519,0,0,0-.98-3.634,20.962,20.962,0,0,0-1.53-3.228,17.532,17.532,0,0,0-4.976-5.333,16.74,16.74,0,0,0-3.062-1.631,23.9,23.9,0,0,0-3.412-1.053,25.8,25.8,0,0,0-4.493-.576c-1.743-.09-3.319-.148-4.719-.17s-4.319-.035-8.739-.035Zm0,16.913a15.228,15.228,0,0,0-6.506,1.426,16.4,16.4,0,0,0-5.356,3.8,18.657,18.657,0,0,0-3.572,19.564A17.6,17.6,0,0,0,431,58.363a16.4,16.4,0,0,0,5.356,3.8,15.552,15.552,0,0,0,13.012,0,16.392,16.392,0,0,0,5.356-3.8A18.654,18.654,0,0,0,458.291,38.8a17.6,17.6,0,0,0-3.571-5.706,16.393,16.393,0,0,0-5.356-3.8,15.216,15.216,0,0,0-6.506-1.423Zm0,29.48a10.191,10.191,0,0,1-7.719-3.4,12.189,12.189,0,0,1,0-16.439,10.468,10.468,0,0,1,15.443,0,12.189,12.189,0,0,1,0,16.439A10.191,10.191,0,0,1,442.858,57.343Zm21.363-30.159a4.111,4.111,0,0,1-1.147,2.922,3.7,3.7,0,0,1-2.8,1.223,3.641,3.641,0,0,1-2.743-1.223,4.111,4.111,0,0,1-1.147-2.922,4.2,4.2,0,0,1,1.147-2.99,3.626,3.626,0,0,1,2.743-1.223,3.7,3.7,0,0,1,2.8,1.223,4.2,4.2,0,0,1,1.147,2.99Z" transform="translate(-410.184 -10.95)" fill="#cf755a"/>
  </g>
</svg>
