<svg xmlns="http://www.w3.org/2000/svg" width="70.141" height="70.141" viewBox="0 0 70.141 70.141">
  <path id="sunny_FILL0_wght400_GRAD0_opsz48" d="M72.679-908.044V-920h4.782v11.956Zm20.4,8.449-3.348-3.348,8.449-8.528,3.348,3.427Zm5.1,17.057v-4.782H110.14v4.782ZM72.679-849.86v-11.956h4.782v11.956Zm-15.7-49.815-8.369-8.369,3.348-3.348,8.449,8.449Zm41.287,41.207-8.528-8.449L93-870.185l8.608,8.289ZM40-882.539v-4.782H51.956v4.782Zm12.035,24.071-3.427-3.348,8.369-8.369,1.753,1.594,1.754,1.674ZM75.07-865.8a18.447,18.447,0,0,1-13.55-5.579,18.447,18.447,0,0,1-5.579-13.55,18.447,18.447,0,0,1,5.579-13.55,18.447,18.447,0,0,1,13.55-5.579,18.447,18.447,0,0,1,13.55,5.579A18.447,18.447,0,0,1,94.2-884.93a18.447,18.447,0,0,1-5.579,13.55A18.447,18.447,0,0,1,75.07-865.8Zm0-4.782a13.836,13.836,0,0,0,10.162-4.184,13.836,13.836,0,0,0,4.184-10.162,13.836,13.836,0,0,0-4.184-10.162,13.836,13.836,0,0,0-10.162-4.184,13.836,13.836,0,0,0-10.162,4.184,13.836,13.836,0,0,0-4.184,10.162,13.836,13.836,0,0,0,4.184,10.162A13.836,13.836,0,0,0,75.07-870.583ZM75.07-884.93Z" transform="translate(-40 920)" fill="#cf755a"/>
</svg>
